<?xml version="1.0" standalone="no"?>
<!DOCTYPE svg PUBLIC "-//W3C//DTD SVG 20010904//EN"
 "http://www.w3.org/TR/2001/REC-SVG-20010904/DTD/svg10.dtd">
<svg version="1.0" xmlns="http://www.w3.org/2000/svg"
 width="450.000000pt" height="350.000000pt" viewBox="0 0 450.000000 350.000000"
 preserveAspectRatio="xMidYMid meet">

<g transform="translate(0.000000,350.000000) scale(0.100000,-0.100000)"
fill="#000000" stroke="none">
<path d="M1650 1901 l0 -269 31 -26 c44 -37 129 -31 129 9 0 10 -7 12 -31 5
-34 -10 -73 1 -82 23 -3 9 -9 130 -13 271 -6 205 -10 256 -21 256 -10 0 -13
-50 -13 -269z"/>
<path d="M1880 1915 c0 -278 4 -300 55 -323 47 -21 115 -9 115 21 0 8 -15 11
-48 9 -77 -6 -77 -9 -80 290 -3 247 -4 258 -23 258 -18 0 -19 -10 -19 -255z"/>
<path d="M2512 1863 l3 -278 38 -3 37 -3 0 132 0 132 36 33 c25 24 45 34 68
34 69 0 85 -41 86 -222 l0 -108 41 0 41 0 -4 148 c-4 165 -12 192 -68 230 -30
20 -44 23 -95 19 -33 -3 -70 -8 -82 -12 -23 -7 -23 -6 -23 84 l0 91 -40 0 -40
0 2 -277z"/>
<path d="M900 2031 c-175 -34 -249 -245 -133 -380 45 -53 105 -75 186 -69 70
6 117 24 117 46 0 11 -7 13 -27 7 -16 -4 -62 -10 -105 -12 -76 -4 -76 -4 -117
32 -49 45 -64 88 -59 171 3 52 9 70 34 101 17 21 46 46 65 56 33 18 58 18 188
5 13 -2 26 2 28 9 8 22 -114 46 -177 34z"/>
<path d="M1311 2030 c-72 -17 -136 -89 -151 -170 -29 -150 48 -269 180 -278
62 -5 160 19 181 44 19 23 -12 27 -57 8 -54 -23 -143 -22 -185 2 -40 23 -79
93 -79 141 l0 33 176 0 177 0 -6 56 c-7 64 -42 126 -84 147 -37 19 -110 27
-152 17z m127 -50 c32 -20 71 -86 72 -122 0 -16 -14 -18 -150 -18 -120 0 -152
3 -156 14 -6 17 26 84 53 108 46 42 129 50 181 18z"/>
<path d="M2235 1971 c-42 -17 -75 -62 -75 -101 0 -50 28 -84 99 -120 88 -44
103 -76 46 -102 -21 -9 -34 -8 -78 10 -29 12 -55 22 -58 22 -4 0 -12 -14 -19
-31 -15 -36 -12 -40 63 -65 69 -23 131 -12 174 31 26 26 33 41 33 72 0 52 -13
68 -101 117 -44 25 -75 49 -78 61 -7 40 68 59 119 30 14 -8 28 -14 32 -15 7 0
38 52 38 64 0 2 -21 11 -47 20 -50 17 -115 20 -148 7z"/>
<path d="M3050 1969 c-40 -16 -89 -58 -106 -91 -25 -48 -16 -183 14 -226 47
-66 144 -94 234 -68 90 26 138 94 138 199 0 82 -36 144 -102 176 -48 23 -133
28 -178 10z m152 -79 c36 -28 51 -72 46 -130 -9 -86 -75 -132 -157 -110 -92
25 -117 165 -41 233 39 34 113 38 152 7z"/>
<path d="M3525 1964 c-19 -10 -31 -11 -33 -5 -2 6 -21 11 -43 11 l-39 0 0
-280 0 -280 40 0 40 0 0 94 0 94 42 -15 c123 -42 241 41 255 182 9 89 -34 172
-104 201 -43 19 -121 18 -158 -2z m138 -74 c74 -58 50 -211 -38 -240 -32 -10
-41 -9 -83 12 l-47 23 0 90 0 90 45 23 c55 27 90 28 123 2z"/>
<path d="M1614 1455 c-35 -35 -31 -60 14 -84 33 -18 72 9 72 48 0 51 -50 72
-86 36z m60 -14 c33 -36 -18 -83 -52 -49 -17 17 -15 45 6 57 24 14 26 14 46
-8z"/>
<path d="M2149 1467 c-34 -18 -39 -70 -7 -91 30 -20 67 -10 79 21 18 47 -28
91 -72 70z m55 -29 c14 -23 -3 -52 -32 -56 -32 -5 -49 34 -26 59 21 23 42 21
58 -3z"/>
<path d="M2256 1464 c-23 -22 -20 -31 14 -49 41 -21 39 -39 -2 -31 -31 5 -32
5 -14 -9 25 -19 28 -19 52 0 18 15 18 16 -14 44 -32 28 -31 48 2 35 23 -9 20
3 -3 16 -15 7 -23 6 -35 -6z"/>
<path d="M2792 1464 c-52 -36 -4 -122 53 -96 33 15 34 52 3 52 -17 0 -19 -3
-9 -9 18 -11 5 -31 -19 -31 -27 0 -44 34 -30 61 9 16 18 19 43 14 30 -6 31 -5
13 10 -24 19 -26 19 -54 -1z"/>
<path d="M1382 1420 c0 -47 2 -50 7 -20 l7 35 13 -24 13 -24 19 24 19 24 0
-38 c0 -23 4 -36 10 -32 13 8 13 105 0 105 -5 0 -15 -9 -22 -20 -16 -26 -25
-25 -49 3 l-18 22 1 -55z"/>
<path d="M1500 1421 c0 -28 5 -53 10 -56 6 -3 10 3 10 14 0 14 6 21 20 21 10
0 24 9 30 21 15 27 -3 49 -41 49 -28 0 -29 -2 -29 -49z m55 19 c0 -8 -8 -16
-17 -18 -13 -2 -18 3 -18 18 0 15 5 20 18 18 9 -2 17 -10 17 -18z"/>
<path d="M1720 1428 c0 -24 5 -50 10 -58 8 -12 10 -11 10 6 0 33 12 36 35 9
l20 -26 0 53 0 53 -37 3 -38 3 0 -43z m58 9 c2 -12 -3 -17 -17 -17 -12 0 -21
6 -21 13 0 31 32 34 38 4z"/>
<path d="M1828 1463 c6 -2 12 -17 13 -31 0 -15 4 -36 9 -47 7 -16 9 -11 9 22
1 29 6 45 19 52 13 8 9 10 -23 10 -22 0 -34 -3 -27 -6z"/>
<path d="M1920 1445 c-5 -14 -12 -36 -16 -49 -5 -21 -2 -22 25 -18 17 2 38 -1
46 -8 19 -16 19 -15 -4 45 -22 58 -37 67 -51 30z m30 -25 c0 -11 -4 -20 -10
-20 -5 0 -10 9 -10 20 0 11 5 20 10 20 6 0 10 -9 10 -20z"/>
<path d="M2000 1420 c0 -56 9 -64 55 -52 68 19 51 102 -22 102 l-33 0 0 -50z
m61 30 c23 -13 25 -55 3 -64 -34 -13 -44 -6 -44 27 0 47 8 54 41 37z"/>
<path d="M2380 1415 c0 -35 4 -54 10 -50 6 3 10 12 10 18 0 7 10 17 23 22 14
7 22 19 22 35 0 21 -5 26 -32 28 l-33 3 0 -56z m49 32 c12 -15 5 -27 -16 -27
-7 0 -13 9 -13 20 0 23 13 26 29 7z"/>
<path d="M2476 1427 c-20 -52 -21 -76 -4 -59 7 7 21 12 33 12 12 0 26 -5 33
-12 18 -18 15 3 -8 56 -10 25 -23 46 -28 46 -5 0 -17 -19 -26 -43z m44 -19 c0
-5 -7 -8 -15 -8 -15 0 -20 21 -8 33 7 7 23 -11 23 -25z"/>
<path d="M2570 1415 c0 -35 4 -54 10 -50 6 3 10 13 10 21 0 18 9 18 30 -1 15
-14 17 -11 16 32 -1 47 -2 48 -33 51 l-33 3 0 -56z m55 25 c0 -8 -8 -16 -17
-18 -13 -2 -18 3 -18 18 0 15 5 20 18 18 9 -2 17 -10 17 -18z"/>
<path d="M2686 1438 c-8 -18 -17 -44 -21 -58 -6 -20 -5 -23 6 -12 17 15 51 16
67 0 9 -9 12 -9 12 2 0 24 -32 100 -42 100 -5 0 -15 -15 -22 -32z m34 -24 c0
-14 -12 -19 -23 -8 -9 9 4 35 14 28 5 -3 9 -12 9 -20z"/>
<path d="M2890 1431 c0 -39 20 -71 44 -71 24 0 36 25 34 70 l-1 45 -6 -45 c-5
-36 -10 -45 -26 -45 -16 0 -21 8 -23 43 -4 53 -22 56 -22 3z"/>
<path d="M3010 1428 c-23 -50 -27 -79 -8 -60 7 7 21 12 33 12 12 0 26 -5 33
-12 16 -16 15 -1 -4 55 -9 26 -20 47 -25 47 -6 0 -19 -19 -29 -42z m35 -17
c-9 -16 -25 -3 -18 15 4 10 9 12 15 6 6 -6 7 -15 3 -21z"/>
<path d="M3094 1438 c8 -18 17 -42 21 -53 6 -17 9 -14 20 18 7 20 18 44 25 52
8 10 9 15 2 15 -6 0 -17 -10 -23 -22 l-12 -22 -15 22 c-22 33 -34 26 -18 -10z"/>
<path d="M1330 1413 c0 -35 3 -44 10 -33 13 20 13 67 0 75 -6 4 -10 -12 -10
-42z"/>
</g>
</svg>
